<svg width="821" height="395" viewBox="0 0 821 395" fill="none" xmlns="http://www.w3.org/2000/svg">
<path d="M14 161.408C37.8391 209.087 84.1595 195.927 111.469 170.009C138.778 144.09 197.462 88.3981 188.729 58.9362C178.747 18.8422 54.1708 109.958 108.411 136.169C148.108 155.353 171.765 164.215 171.765 201.37C171.765 216.103 167.077 230.201 162.187 243.953C154.867 264.542 144.429 284.734 133.106 303.384C119.735 325.407 102.229 345.162 82.6767 361.891C71.816 371.184 59.4096 380.472 45.1718 383.586C40.593 384.588 38.7035 384.039 38.9979 378.74C39.3405 372.574 42.968 366.51 45.7488 361.199C54.4255 344.626 64.2262 328.636 74.5987 313.077C97.8714 278.168 123.128 244.415 148.108 210.718C171.802 178.757 195.503 146.417 222.426 117.071C231.776 106.879 242.114 97.2749 251.045 86.7205C251.045 86.7205 247.334 102.14 246.429 104.954C240.894 122.174 236.861 139.613 233.043 157.287C230.472 169.187 228.888 180.664 228.888 192.831C228.888 197.721 226.52 209.763 230.965 213.256C233.701 215.406 237.872 215.266 241.178 214.699C255.498 212.244 266.313 201.038 275.625 190.753C299.87 163.979 320.689 128.121 328.594 92.5482C330.221 85.2264 331.929 76.7384 322.362 76.7384C308.891 76.7384 305.514 98.595 302.86 108.704C298.415 125.626 298.546 144.436 299.571 161.846C300.068 170.294 302.743 177.22 311.515 179.56C323.359 182.718 330.524 180.812 341.057 174.136C348.614 169.346 356.527 161.52 361.829 154.402C370.051 143.365 378.511 132.074 385.659 120.302C392.478 109.071 398.506 97.0728 403.892 85.1049C408.413 75.0574 414.153 65.0857 416.875 54.3509C417.964 50.0551 419.872 33.2906 416.875 30.2931C404.282 17.7009 390.278 25.9623 387.919 50.0582C385.659 73.1429 415.389 69.6826 423.106 69.4682C429.316 69.2957 435.502 64.4968 440.878 61.9673C467.591 49.3961 504.692 25.8471 535.275 25.8471" stroke="white" stroke-width="20.5198" stroke-linecap="square" stroke-linejoin="bevel"/>
<path d="M472.874 49.1241C466.311 54.5933 460.244 62.4605 455.511 69.4692C446.33 83.0642 439.781 98.5377 434.521 114.027C430.796 124.994 426.463 137.662 426.463 149.399C426.463 152.327 425.613 153.998 428.961 153.871C438.561 153.509 448.274 142.878 454.906 137.031C474.818 119.478 490.887 98.374 508.247 78.4533C508.247 78.4533 502.97 101.902 502.647 112.093C502.1 129.318 507.63 144.43 528.471 134.211C569.849 113.924 609.379 53.4547 628.787 14.638" stroke="white" stroke-width="20.5198" stroke-linecap="square" stroke-linejoin="bevel"/>
<path d="M633.401 11.5839C633.401 64.1405 614.692 121.995 601.472 172.605C586.078 231.545 564.494 291.78 529.036 341.933C528.191 343.127 515.332 360.977 512.719 355.752C511.201 352.715 511.903 351.449 512.679 347.09C515.369 331.975 519.439 318.384 524.443 303.62C539.413 259.447 559.475 217.702 583.182 177.601C610.304 131.722 642.389 88.2356 677.132 47.8347C687.822 35.4044 698.911 22.4952 713.31 14.235C733.681 2.54976 745.687 24.9254 738.49 43.0405C722.816 82.4917 689.177 161.828 663.193 139.771C633.401 114.482 723.893 54.1294 758.294 51.2627C797.216 48.0192 807.33 69.9713 807.33 69.9713" stroke="white" stroke-width="20.5198" stroke-linecap="square" stroke-linejoin="bevel"/>
</svg>
