<svg width="101" height="64" viewBox="0 0 101 64" fill="none" xmlns="http://www.w3.org/2000/svg">
<path d="M4.95898 31.2631C7.71092 28.2635 10.754 25.4366 13.3826 22.3301C13.3826 22.3301 12.2902 26.8684 12.0239 27.6967C10.3947 32.7653 9.20778 37.8982 8.08386 43.1003C7.32716 46.6027 6.86109 49.9807 6.86109 53.5618C6.86109 55.0011 6.16392 58.5457 7.47248 59.5738C8.27774 60.2065 9.5053 60.1652 10.4785 59.9984C14.6931 59.2759 17.8764 55.9774 20.6173 52.9505C23.1185 50.1883 25.4958 47.0977 27.629 43.7974M27.629 43.7974C31.5819 37.6816 34.6966 30.8458 36.2078 24.0453C36.6867 21.8903 37.1895 19.392 34.3736 19.392C30.4085 19.392 29.4148 25.8251 28.6333 28.8006C27.3799 33.5732 27.363 38.8558 27.629 43.7974ZM27.629 43.7974C27.6406 44.0129 27.6527 44.2278 27.6653 44.442C27.8116 46.9284 28.5989 48.9672 31.1808 49.6557C34.667 50.5854 36.7758 50.0243 39.8761 48.0593C42.1004 46.6495 44.4295 44.346 45.99 42.2511C48.41 39.0023 50.9002 35.6792 53.004 32.2142C55.011 28.9085 56.7855 25.3771 58.3706 21.8545C59.0478 20.3497 59.8178 18.8507 60.5163 17.3249M60.5163 17.3249C61.1906 15.8521 61.7984 14.3544 62.1918 12.8026C62.5123 11.5382 63.0741 6.60382 62.1918 5.72156C58.4855 2.01524 54.3636 4.44687 53.6692 11.5391C53.2103 16.226 57.2318 17.1953 60.5163 17.3249ZM60.5163 17.3249C61.9934 17.3832 63.3214 17.2717 64.026 17.2521C65.8537 17.2014 67.6746 15.7889 69.2567 15.0443C77.1195 11.3442 88.0396 4.41297 97.041 4.41297" stroke="white" stroke-width="6.03966" stroke-linecap="square" stroke-linejoin="bevel"/>
</svg>
