<svg width="1527" height="733" viewBox="0 0 1527 733" fill="none" xmlns="http://www.w3.org/2000/svg">
<path d="M24.3303 299.231C68.7635 388.097 155.099 363.569 206 315.26L206.009 315.252C217.52 304.327 232.021 290.565 247.383 275.172M247.383 275.172C233.468 267.951 217.712 260.602 200.301 252.188C99.2037 203.334 331.398 33.505 350.004 108.235C362.599 150.728 299.952 222.497 247.383 275.172ZM247.383 275.172C281.019 292.627 303.901 309.337 313.416 338.548M313.416 338.548C316.694 348.607 318.385 360.149 318.385 373.715C318.385 401.175 309.646 427.452 300.533 453.083C286.888 491.459 267.435 529.094 246.33 563.855C221.407 604.904 188.778 641.725 152.335 672.906C132.092 690.226 108.968 707.538 82.4307 713.343C73.8964 715.21 70.3745 714.187 70.9233 704.309C71.5618 692.817 78.323 681.515 83.5061 671.616C99.6785 640.726 117.946 610.922 137.279 581.923C180.656 516.857 227.731 453.944 274.292 391.137C287.281 373.615 300.272 356.032 313.416 338.548ZM313.416 338.548C344.96 296.589 377.389 255.2 412.81 216.591C430.237 197.596 449.507 179.694 466.153 160.022C466.153 160.022 459.235 188.761 457.549 194.006C447.232 226.104 439.716 258.607 432.599 291.55C427.807 313.729 424.855 335.12 424.855 357.798C424.855 366.912 420.441 389.358 428.727 395.869C433.826 399.876 441.6 399.614 447.763 398.558C474.452 393.982 494.61 373.095 511.967 353.926C527.806 336.435 542.86 316.864 556.369 295.964M556.369 295.964C581.401 257.236 601.124 213.948 610.694 170.884C613.727 157.237 616.911 141.416 599.079 141.416C573.97 141.416 567.677 182.154 562.729 200.997C554.791 231.219 554.684 264.671 556.369 295.964ZM556.369 295.964C556.442 297.329 556.519 298.69 556.599 300.046C557.525 315.792 562.511 328.703 578.861 333.062C600.937 338.949 614.291 335.396 633.924 322.953C648.01 314.026 662.759 299.438 672.64 286.173L673.982 284.372C688.883 264.372 704.123 243.916 717.057 222.613C729.766 201.68 741.003 179.317 751.041 157.011C755.329 147.481 760.205 137.989 764.629 128.327M764.629 128.327C768.899 119 772.747 109.516 775.239 99.6889C777.268 91.6821 783.5 63.5 772 52C753 33 725.666 46.7761 721.269 91.6878C718.363 121.368 743.829 127.506 764.629 128.327ZM764.629 128.327C773.982 128.696 782.392 127.99 786.854 127.866C798.428 127.544 809.959 118.6 819.978 113.885C869.768 90.4538 938.92 46.5614 995.922 46.5614M883 82.5C865.5 91.5 853.322 113.437 844.5 126.5C827.388 151.839 817.934 182.048 808.129 210.918L807.972 211.38C801.066 231.715 793.111 255.135 793.111 276.848C793.111 282.304 791.526 285.418 797.767 285.183C815.66 284.508 833.764 264.692 846.125 253.795C883.237 221.078 913.19 181.743 945.545 144.613C945.545 144.613 935.711 188.318 935.108 207.314C934.089 239.418 944.395 267.584 983.241 248.539C1060.36 210.725 1134.04 98.0185 1170.22 25.669M1178.82 19.9766C1178.82 92.2538 1159.83 169.906 1139.98 243.545M1139.98 243.545C1132.93 269.71 1125.77 295.369 1119.31 320.1C1090.61 429.957 1050.38 542.227 984.293 635.706C982.719 637.932 958.751 671.202 953.881 661.463C951.052 655.803 952.361 653.443 953.806 645.318C958.819 617.145 966.406 591.815 975.733 564.295C1003.63 481.963 1041.03 404.156 1085.22 329.411C1102.45 300.253 1120.76 271.614 1139.98 243.545ZM1139.98 243.545C1177.13 189.293 1217.65 137.17 1260.33 87.5435L1260.42 87.4297C1280.32 64.2962 1300.96 40.2886 1327.76 24.9179C1365.73 3.13803 1388.1 44.8435 1374.69 78.6078C1371.05 87.7621 1366.9 98.0687 1362.31 109.019M1362.31 109.019C1330.09 186.03 1276.75 294.894 1234.35 258.901C1190.1 221.345 1288.19 142.3 1362.31 109.019ZM1362.31 109.019C1381.22 100.53 1398.57 95.0188 1411.6 93.9329C1484.15 87.8875 1503 128.803 1503 128.803" stroke="url(#paint0_linear_117_105)" stroke-width="36" stroke-linecap="square" stroke-linejoin="bevel"/>
<defs>
<linearGradient id="paint0_linear_117_105" x1="24" y1="366" x2="1503" y2="366" gradientUnits="userSpaceOnUse">
<stop stop-color="#EDEDED"/>
<stop offset="0.922314" stop-color="#EDEDED"/>
<stop offset="1" stop-color="#EDEDED" stop-opacity="0.5"/>
</linearGradient>
</defs>
</svg>
