<svg width="821" height="395" viewBox="0 0 821 395" fill="none" xmlns="http://www.w3.org/2000/svg">
<path d="M14 161.408C37.8391 209.087 84.1595 195.927 111.469 170.008L111.473 170.004C117.65 164.143 125.43 156.759 133.671 148.501M133.671 148.501C126.206 144.626 117.752 140.684 108.411 136.169C54.1708 109.958 178.747 18.8421 188.729 58.9362C195.487 81.7344 161.875 120.239 133.671 148.501ZM133.671 148.501C151.717 157.865 163.994 166.831 169.099 182.503M169.099 182.503C170.858 187.9 171.765 194.092 171.765 201.37C171.765 216.103 167.077 230.201 162.187 243.953C154.867 264.542 144.429 284.734 133.106 303.384C119.735 325.407 102.229 345.162 82.6767 361.891C71.816 371.184 59.4096 380.472 45.1718 383.586C40.593 384.588 38.7035 384.039 38.9979 378.74C39.3405 372.574 42.968 366.51 45.7488 361.199C54.4255 344.626 64.2262 328.636 74.5987 313.077C97.8714 278.168 123.128 244.415 148.108 210.718C155.078 201.317 162.047 191.883 169.099 182.503ZM169.099 182.503C186.023 159.991 203.422 137.785 222.426 117.071C231.776 106.879 242.114 97.2748 251.045 86.7205L250.5 89M472.874 49.1241C466.311 54.5933 460.244 62.4605 455.511 69.4692C446.33 83.0642 439.781 98.5377 434.521 114.027L434.437 114.275C430.731 125.185 426.463 137.75 426.463 149.399C426.463 152.327 425.613 153.998 428.961 153.871C438.561 153.509 448.274 142.878 454.906 137.031C474.818 119.478 490.887 98.374 508.247 78.4533C508.247 78.4533 502.97 101.902 502.647 112.093C502.1 129.318 507.63 144.43 528.471 134.211C569.849 113.924 609.378 53.4547 628.787 14.638M633.402 11.5839C633.402 50.3618 623.216 92.0236 612.566 131.532M612.566 131.532C608.781 145.57 604.938 159.336 601.472 172.605C586.078 231.545 564.494 291.78 529.036 341.933C528.191 343.127 515.332 360.977 512.719 355.752C511.201 352.715 511.903 351.449 512.679 347.09C515.369 331.975 519.439 318.384 524.443 303.62C539.413 259.447 559.475 217.702 583.182 177.601C592.43 161.957 602.255 146.592 612.566 131.532ZM612.566 131.532C632.494 102.425 654.236 74.4599 677.132 47.8347L677.185 47.7734C687.858 35.362 698.935 22.4816 713.31 14.235C733.681 2.54976 745.687 24.9254 738.49 43.0405C736.539 47.952 734.309 53.4816 731.85 59.3568M731.85 59.3568C714.559 100.674 685.942 159.082 663.193 139.771C639.456 119.621 692.079 77.2124 731.85 59.3568ZM731.85 59.3568C741.995 54.8023 751.303 51.8453 758.294 51.2627C797.216 48.0192 807.33 69.9713 807.33 69.9713" stroke="white" stroke-width="20.5198" stroke-linecap="square" stroke-linejoin="bevel"/>
</svg>
